<svg width="24" height="24" viewBox="0 0 24 24" fill="none" xmlns="http://www.w3.org/2000/svg">
<g clip-path="url(#clip0_0_17)">
<path d="M6 24C3.794 24 2 22.206 2 20C2 18.932 2.416 17.927 3.171 17.171L14.171 6.171C14.366 5.976 14.683 5.976 14.878 6.171C15.073 6.366 15.073 6.683 14.878 6.878L3.878 17.878C3.312 18.445 3 19.199 3 20C3 21.654 4.346 23 6 23C6.801 23 7.555 22.688 8.122 22.122L19.122 11.122C19.317 10.927 19.634 10.927 19.829 11.122C20.024 11.317 20.024 11.634 19.829 11.829L8.829 22.829C8.073 23.584 7.068 24 6 24Z" fill="#0092DB"/>
<path d="M20.5 13C20.372 13 20.244 12.951 20.146 12.854L13.146 5.854C12.951 5.659 12.951 5.342 13.146 5.147C13.341 4.952 13.658 4.952 13.853 5.147L20.853 12.147C21.048 12.342 21.048 12.659 20.853 12.854C20.756 12.951 20.628 13 20.5 13Z" fill="#0092DB"/>
<path d="M20 8C18.897 8 18 7.103 18 6C18 4.897 18.897 4 20 4C21.103 4 22 4.897 22 6C22 7.103 21.103 8 20 8ZM20 5C19.449 5 19 5.449 19 6C19 6.551 19.449 7 20 7C20.551 7 21 6.551 21 6C21 5.449 20.551 5 20 5Z" fill="#0092DB"/>
<path d="M16.5 3C15.673 3 15 2.327 15 1.5C15 0.673 15.673 0 16.5 0C17.327 0 18 0.673 18 1.5C18 2.327 17.327 3 16.5 3ZM16.5 1C16.224 1 16 1.224 16 1.5C16 1.776 16.224 2 16.5 2C16.776 2 17 1.776 17 1.5C17 1.224 16.776 1 16.5 1Z" fill="#0092DB"/>
<path d="M6 21C5.449 21 5 20.551 5 20C5 19.449 5.449 19 6 19C6.551 19 7 19.449 7 20C7 20.551 6.551 21 6 21Z" fill="#0092DB"/>
<path d="M9 19C8.449 19 8 18.551 8 18C8 17.449 8.449 17 9 17C9.551 17 10 17.449 10 18C10 18.551 9.551 19 9 19Z" fill="#0092DB"/>
<path d="M12.5 12C12.372 12 12.244 11.951 12.146 11.854L10.676 10.384C10.481 10.189 10.481 9.872 10.676 9.677C10.871 9.482 11.188 9.482 11.383 9.677L12.853 11.147C13.048 11.342 13.048 11.659 12.853 11.854C12.756 11.951 12.628 12 12.5 12Z" fill="#0092DB"/>
<path d="M14.249 15.998C13.779 15.998 13.309 15.885 12.898 15.659L12.114 15.216C11.598 14.931 10.901 14.932 10.382 15.218L9.606 15.656C8.781 16.111 7.72 16.111 6.899 15.658L6.064 15.185C5.824 15.049 5.739 14.744 5.876 14.503C6.012 14.264 6.316 14.178 6.558 14.315L7.388 14.785C7.901 15.068 8.599 15.069 9.119 14.782L9.895 14.344C10.72 13.889 11.78 13.888 12.602 14.342L13.386 14.785C13.901 15.07 14.598 15.068 15.118 14.783L15.935 14.325C16.174 14.19 16.48 14.276 16.616 14.516C16.752 14.756 16.665 15.061 16.425 15.197L15.605 15.657C15.192 15.884 14.72 15.998 14.249 15.998Z" fill="#0092DB"/>
</g>
<defs>
<clipPath id="clip0_0_17">
<rect width="24" height="24" fill="white"/>
</clipPath>
</defs>
</svg>
