<svg width="24" height="24" viewBox="0 0 24 24" fill="none" xmlns="http://www.w3.org/2000/svg">
<g clip-path="url(#clip0_0_31)">
<g clip-path="url(#clip1_0_31)">
<path d="M6.75211 24C6.60097 24 6.45591 23.9398 6.34817 23.8325L0.174747 17.6549C0.0597684 17.5399 -0.000766512 17.3819 0.00799011 17.2193C0.0167467 17.0571 0.0947949 16.9068 0.221195 16.8051L17.3537 3.06025C17.5802 2.87751 17.9088 2.89578 18.1148 3.10175L20.8929 5.88217C21.0989 6.08814 21.1164 6.41632 20.9344 6.64362L7.19756 23.786C7.09591 23.9124 6.94552 23.9901 6.78333 23.9992C6.77305 23.9996 6.76239 24 6.75211 24ZM1.43265 17.2978L6.70528 22.5734L19.7233 6.328L17.669 4.27209L1.43265 17.2978Z" fill="#0092DB"/>
<path d="M20.489 6.85758C20.3382 6.85758 20.1928 6.7978 20.085 6.69006L17.3073 3.91002C17.1854 3.78819 17.1253 3.61839 17.1428 3.44706C17.1607 3.2765 17.2544 3.12193 17.3979 3.02789L21.874 0.0936566C22.0998 -0.0548253 22.3991 -0.0239867 22.5906 0.167898L23.8256 1.40334C24.0171 1.59447 24.048 1.89409 23.8995 2.12062L20.9668 6.59907C20.8724 6.74336 20.7186 6.83702 20.5472 6.85453C20.5278 6.85643 20.5084 6.85758 20.489 6.85758ZM18.6112 3.59897L20.3965 5.38494L22.6896 1.88267L22.1116 1.30435L18.6112 3.59897Z" fill="#0092DB"/>
<path d="M12.9152 15.9728C12.7641 15.9728 12.6187 15.9058 12.5117 15.7981L10.3614 13.6432C10.1383 13.4201 10.1383 13.0565 10.3614 12.8334L14.6833 8.5084C14.7903 8.40103 14.9357 8.34012 15.0873 8.34012C15.2384 8.34012 15.3839 8.40027 15.4908 8.50764L17.332 10.35C17.5441 10.562 17.5559 10.9016 17.3598 11.1282L13.347 15.7688C13.2434 15.8883 13.0942 15.9728 12.9358 15.9728C12.929 15.9728 12.9221 15.9728 12.9152 15.9728ZM11.5728 13.2355L12.8856 14.5489L16.1487 10.7817L15.0873 9.71948L11.5728 13.2355Z" fill="#0092DB"/>
<path d="M21.7237 5.00384C21.5775 5.00384 21.4316 4.94825 21.3201 4.8367L19.1595 2.67458C18.9364 2.45109 18.9364 2.08979 19.1595 1.8663C19.3826 1.6432 19.7439 1.6432 19.967 1.8663L22.1276 4.02843C22.3507 4.25191 22.3507 4.6136 22.1276 4.8367C22.016 4.94825 21.8698 5.00384 21.7237 5.00384Z" fill="#0092DB"/>
<path d="M8.45014 21.3742C8.30394 21.3742 8.15774 21.3182 8.04619 21.2066L2.79831 15.9561C2.57521 15.733 2.57521 15.3713 2.79831 15.1482C3.02141 14.9251 3.38272 14.9251 3.60582 15.1482L8.8537 20.3987C9.07681 20.6218 9.07681 20.9835 8.8537 21.2066C8.74215 21.3182 8.59634 21.3742 8.45014 21.3742Z" fill="#0092DB"/>
<path d="M3.81978 20.7566C3.67358 20.7566 3.52738 20.7007 3.41583 20.5891C3.19273 20.366 3.19273 20.0043 3.41583 19.7812L5.26805 17.9279C5.49077 17.7048 5.85246 17.7048 6.07556 17.9279C6.29828 18.151 6.29828 18.5126 6.07556 18.7357L4.22335 20.5891C4.11179 20.7007 3.96598 20.7566 3.81978 20.7566Z" fill="#0092DB"/>
<path d="M5.36286 22.3008C5.21704 22.3008 5.07084 22.2452 4.95929 22.1333C4.73619 21.9102 4.73619 21.5485 4.95929 21.3254L6.81151 19.4724C7.03461 19.2493 7.39591 19.2493 7.61902 19.4724C7.84212 19.6955 7.84212 20.0572 7.61902 20.2803L5.7668 22.1333C5.65525 22.2452 5.50905 22.3008 5.36286 22.3008Z" fill="#0092DB"/>
<path d="M2.5851 19.5212C2.4389 19.5212 2.2927 19.4652 2.18115 19.3537C1.95805 19.1306 1.95805 18.7689 2.18115 18.5458L4.03299 16.6924C4.25609 16.4693 4.6174 16.4693 4.8405 16.6924C5.0636 16.9155 5.0636 17.2772 4.8405 17.5003L2.98866 19.3537C2.87711 19.4652 2.73092 19.5212 2.5851 19.5212Z" fill="#0092DB"/>
</g>
</g>
<defs>
<clipPath id="clip0_0_31">
<rect width="24" height="24" fill="white"/>
</clipPath>
<clipPath id="clip1_0_31">
<rect width="24" height="24" fill="white"/>
</clipPath>
</defs>
</svg>
