<svg width="12" height="24" viewBox="0 0 12 24" fill="none" xmlns="http://www.w3.org/2000/svg">
<path d="M9.26379 8.76171H2.41067C2.09543 8.76171 2.00215 8.50586 2.00215 8.19024V3.81719C2.00215 3.58228 2.06459 3.37135 2.28313 3.28531C4.39656 2.45646 3.76454 0.844456 3.73827 0.776306C3.67089 0.60079 3.67393 0.402811 3.78054 0.247854C3.88714 0.0925171 4.04286 0 4.23094 0H7.36662C7.55165 0 7.72489 0.089852 7.83225 0.240621C7.93924 0.391389 7.96665 0.584799 7.90573 0.759554C7.84976 0.928978 7.48883 2.47512 9.55391 3.28531C9.77245 3.37135 9.99784 3.58228 9.99784 3.81719V8.19024C9.99784 8.50586 9.57903 8.76171 9.26379 8.76171ZM3.14434 7.61914H8.85527V4.19182C6.95163 3.39953 6.64171 2.10543 6.68664 1.14295H4.93072C5.00229 2.1081 4.66725 3.39953 3.14434 4.19182V7.61914Z" fill="#0092DB"/>
<path d="M11.9015 23.4285C11.9015 23.7442 11.6456 24 11.3304 24H0.669985C0.354742 24 0.0988922 23.7442 0.0988922 23.4285V10.4761C0.0988922 10.1605 0.354742 9.90466 0.669985 9.90466H11.3304C11.6456 9.90466 11.9015 10.1605 11.9015 10.4761V23.4285ZM1.2407 22.8571H10.7589V11.0476H1.2407V22.8571Z" fill="#0092DB"/>
<path d="M8.85566 10.4761C8.85566 10.7918 8.59981 11.0476 8.28456 11.0476H4.09654C3.7813 11.0476 3.52545 10.7918 3.52545 10.4761V8.19023C3.52545 7.87461 3.7813 7.61914 4.09654 7.61914H8.28456C8.59981 7.61914 8.85566 7.87461 8.85566 8.19023V10.4761ZM4.66726 9.90466H7.71309V8.76171H4.66726V9.90466Z" fill="#0092DB"/>
<path d="M11.9015 19.619C11.9015 19.9346 11.6456 20.1904 11.3304 20.1904H6.38092C6.06568 20.1904 5.80983 19.9346 5.80983 19.619V13.9046C5.80983 13.589 6.06568 13.3331 6.38092 13.3331H11.3304C11.6456 13.3331 11.9015 13.589 11.9015 13.9046V19.619ZM6.95202 19.0475H10.7593V14.4761H6.95202V19.0475Z" fill="#0092DB"/>
<path d="M7.14238 8.57135C6.82714 8.57135 6.57129 8.3155 6.57129 7.99987V1.14295C6.57129 0.827322 6.82714 0.571472 7.14238 0.571472C7.45763 0.571472 7.71348 0.827322 7.71348 1.14295V7.99987C7.71348 8.3155 7.45763 8.57135 7.14238 8.57135Z" fill="#0092DB"/>
<path d="M4.85762 8.19024C4.54238 8.19024 4.28653 7.93439 4.28653 7.61914V1.14295C4.28653 0.827322 4.54238 0.571472 4.85762 0.571472C5.17287 0.571472 5.42872 0.827322 5.42872 1.14295V7.61914C5.42872 7.93439 5.17325 8.19024 4.85762 8.19024Z" fill="#0092DB"/>
</svg>
