<svg width="24" height="24" viewBox="0 0 24 24" fill="none" xmlns="http://www.w3.org/2000/svg">
<path d="M19.6147 6.34799C19.6147 7.47078 18.7051 8.38074 17.5831 8.38074H14.7931C13.671 8.38074 12.7615 7.47078 12.7615 6.34799V6.22311C12.7615 5.10071 13.671 4.19037 14.7931 4.19037H17.5831C18.7051 4.19037 19.6147 5.10071 19.6147 6.22311V6.34799ZM18.4725 6.22311C18.4725 5.73158 18.0742 5.33333 17.5831 5.33333H14.7931C14.3019 5.33333 13.9037 5.73158 13.9037 6.22311V6.34799C13.9037 6.83952 14.3019 7.23815 14.7931 7.23815H17.5831C18.0742 7.23815 18.4725 6.83952 18.4725 6.34799V6.22311Z" fill="#0092DB"/>
<path d="M16.3785 8.19037C16.0632 8.19037 15.8074 7.93452 15.8074 7.61889V4.95222C15.8074 4.63697 16.0632 4.38074 16.3785 4.38074C16.6937 4.38074 16.9496 4.63697 16.9496 4.95222V7.61889C16.9496 7.93452 16.6937 8.19037 16.3785 8.19037Z" fill="#0092DB"/>
<path d="M19.6147 12.4436C19.6147 13.566 18.7051 14.4763 17.5831 14.4763H14.7931C13.671 14.4763 12.7615 13.566 12.7615 12.4436V12.3183C12.7615 11.1959 13.671 10.2856 14.7931 10.2856H17.5831C18.7051 10.2856 19.6147 11.1959 19.6147 12.3183V12.4436ZM18.4725 12.3183C18.4725 11.8271 18.0742 11.4285 17.5831 11.4285H14.7931C14.3019 11.4285 13.9037 11.8271 13.9037 12.3183V12.4436C13.9037 12.9347 14.3019 13.3333 14.7931 13.3333H17.5831C18.0742 13.3333 18.4725 12.9347 18.4725 12.4436V12.3183Z" fill="#0092DB"/>
<path d="M16.3785 13.5237C16.0632 13.5237 15.8074 13.2678 15.8074 12.9522V11.0474C15.8074 10.7321 16.0632 10.4763 16.3785 10.4763C16.6937 10.4763 16.9496 10.7321 16.9496 11.0474V12.9522C16.9496 13.2678 16.6937 13.5237 16.3785 13.5237Z" fill="#0092DB"/>
<path d="M19.6147 17.7769C19.6147 18.8993 18.7051 19.8096 17.5831 19.8096H14.7931C13.671 19.8096 12.7615 18.8993 12.7615 17.7769V17.6516C12.7615 16.5292 13.671 15.6189 14.7931 15.6189H17.5831C18.7051 15.6189 19.6147 16.5292 19.6147 17.6516V17.7769ZM18.4725 17.6516C18.4725 17.1605 18.0742 16.7619 17.5831 16.7619H14.7931C14.3019 16.7619 13.9037 17.1605 13.9037 17.6516V17.7769C13.9037 18.2684 14.3019 18.6667 14.7931 18.6667H17.5831C18.0742 18.6667 18.4725 18.2684 18.4725 17.7769V17.6516Z" fill="#0092DB"/>
<path d="M16.3785 19.6193C16.0632 19.6193 15.8074 19.363 15.8074 19.0478V16.3811C15.8074 16.0655 16.0632 15.8096 16.3785 15.8096C16.6937 15.8096 16.9496 16.0655 16.9496 16.3811V19.0478C16.9496 19.363 16.6937 19.6193 16.3785 19.6193Z" fill="#0092DB"/>
<path d="M10.4771 6.34799C10.4771 7.47078 9.56749 8.38074 8.44547 8.38074H5.65544C4.53342 8.38074 3.62384 7.47078 3.62384 6.34799V6.22311C3.62384 5.10071 4.53342 4.19037 5.65544 4.19037H8.44547C9.56749 4.19037 10.4771 5.10071 10.4771 6.22311V6.34799ZM9.33486 6.22311C9.33486 5.73158 8.93661 5.33333 8.44547 5.33333H5.65544C5.16429 5.33333 4.76604 5.73158 4.76604 6.22311V6.34799C4.76604 6.83952 5.16429 7.23815 5.65544 7.23815H8.44547C8.93661 7.23815 9.33486 6.83952 9.33486 6.34799V6.22311Z" fill="#0092DB"/>
<path d="M7.24083 8.19037C6.92558 8.19037 6.66972 7.93452 6.66972 7.61889V4.95222C6.66972 4.63697 6.92558 4.38074 7.24083 4.38074C7.55607 4.38074 7.81193 4.63697 7.81193 4.95222V7.61889C7.81193 7.93452 7.55607 8.19037 7.24083 8.19037Z" fill="#0092DB"/>
<path d="M10.4771 12.4436C10.4771 13.566 9.56749 14.4763 8.44547 14.4763H5.65544C4.53342 14.4763 3.62384 13.566 3.62384 12.4436V12.3183C3.62384 11.1959 4.53342 10.2856 5.65544 10.2856H8.44547C9.56749 10.2856 10.4771 11.1959 10.4771 12.3183V12.4436ZM9.33486 12.3183C9.33486 11.8271 8.93661 11.4285 8.44547 11.4285H5.65544C5.16429 11.4285 4.76604 11.8271 4.76604 12.3183V12.4436C4.76604 12.9347 5.16429 13.3333 5.65544 13.3333H8.44547C8.93661 13.3333 9.33486 12.9347 9.33486 12.4436V12.3183Z" fill="#0092DB"/>
<path d="M7.24083 13.5237C6.92558 13.5237 6.66972 13.2678 6.66972 12.9522V11.0474C6.66972 10.7321 6.92558 10.4763 7.24083 10.4763C7.55607 10.4763 7.81193 10.7321 7.81193 11.0474V12.9522C7.81193 13.2678 7.55607 13.5237 7.24083 13.5237Z" fill="#0092DB"/>
<path d="M10.4771 17.7769C10.4771 18.8993 9.56749 19.8096 8.44547 19.8096H5.65544C4.53342 19.8096 3.62384 18.8993 3.62384 17.7769V17.6516C3.62384 16.5292 4.53342 15.6189 5.65544 15.6189H8.44547C9.56749 15.6189 10.4771 16.5292 10.4771 17.6516V17.7769ZM9.33486 17.6516C9.33486 17.1605 8.93661 16.7619 8.44547 16.7619H5.65544C5.16429 16.7619 4.76604 17.1605 4.76604 17.6516V17.7769C4.76604 18.2684 5.16429 18.6667 5.65544 18.6667H8.44547C8.93661 18.6667 9.33486 18.2684 9.33486 17.7769V17.6516Z" fill="#0092DB"/>
<path d="M7.24083 19.6193C6.92558 19.6193 6.66972 19.363 6.66972 19.0478V16.3811C6.66972 16.0655 6.92558 15.8096 7.24083 15.8096C7.55607 15.8096 7.81193 16.0655 7.81193 16.3811V19.0478C7.81193 19.363 7.55607 19.6193 7.24083 19.6193Z" fill="#0092DB"/>
<path d="M22.6606 20.3811C22.6606 22.3796 21.0413 24 19.0436 24H4.95641C2.9587 24 1.33943 22.3796 1.33943 20.3811V3.61888C1.33943 1.62041 2.9587 0 4.95641 0H19.0436C21.0413 0 22.6606 1.62041 22.6606 3.61888V20.3811ZM21.5184 3.61888C21.5184 2.25129 20.4104 1.14259 19.0436 1.14259H4.95641C3.58957 1.14259 2.48164 2.25129 2.48164 3.61888V20.3811C2.48164 21.7487 3.58957 22.857 4.95641 22.857H19.0436C20.4104 22.857 21.5184 21.7487 21.5184 20.3811V3.61888Z" fill="#0092DB"/>
</svg>
