<svg width="24" height="22" viewBox="0 0 24 22" fill="none" xmlns="http://www.w3.org/2000/svg">
<path d="M24 19.7668C24 20.9249 23.0617 21.8636 21.9048 21.8636H2.09524C0.938286 21.8636 0 20.9249 0 19.7668V4.90131C0 3.74322 0.938286 2.80493 2.09524 2.80493H21.9048C23.0617 2.80493 24 3.74322 24 4.90131V19.7668ZM22.8571 4.90131C22.8571 4.37484 22.4309 3.94817 21.9048 3.94817H2.09524C1.56914 3.94817 1.14286 4.37484 1.14286 4.90131V19.7668C1.14286 20.2933 1.56914 20.72 2.09524 20.72H21.9048C22.4309 20.72 22.8571 20.2933 22.8571 19.7668V4.90131Z" fill="#0092DB"/>
<path d="M15.8095 3.7577C15.4941 3.7577 15.2381 3.5017 15.2381 3.18589V1.27999H8.38096V3.18589C8.38096 3.5017 8.12496 3.7577 7.80953 3.7577C7.4941 3.7577 7.2381 3.5017 7.2381 3.18589V0.708178C7.2381 0.392749 7.33143 0.136749 7.64686 0.136749H15.6469C15.9623 0.136749 16.381 0.392749 16.381 0.708178V3.18589C16.381 3.5017 16.125 3.7577 15.8095 3.7577Z" fill="#0092DB"/>
<path d="M12 10.6186C11.6846 10.6186 11.4286 10.3626 11.4286 10.0472V5.47312C11.4286 5.15731 11.6846 4.90131 12 4.90131C12.3154 4.90131 12.5714 5.15731 12.5714 5.47312V10.0472C12.5714 10.3626 12.3154 10.6186 12 10.6186Z" fill="#0092DB"/>
<path d="M13.9326 8.52227H9.7421C9.42667 8.52227 9.17067 8.26627 9.17067 7.95046C9.17067 7.63503 9.42667 7.37903 9.7421 7.37903H13.9326C14.248 7.37903 14.504 7.63503 14.504 7.95046C14.504 8.26627 14.248 8.52227 13.9326 8.52227Z" fill="#0092DB"/>
<path d="M20.5714 14.4301C20.5714 14.7459 20.3154 15.0019 20 15.0019H16.9524C16.637 15.0019 16.381 14.7459 16.381 14.4301V12.5242C16.381 12.2087 16.637 11.9524 16.9524 11.9524H20C20.3154 11.9524 20.5714 12.2084 20.5714 12.5242V14.4301ZM17.5238 13.8583H19.4286V13.096H17.5238V13.8583Z" fill="#0092DB"/>
<path d="M7.61905 14.4301C7.61905 14.7459 7.36305 15.0019 7.04762 15.0019H4C3.68457 15.0019 3.42857 14.7459 3.42857 14.4301V12.5242C3.42857 12.2087 3.68457 11.9524 4 11.9524H7.04762C7.36305 11.9524 7.61905 12.2084 7.61905 12.5242V14.4301ZM4.57143 13.8583H6.47619V13.096H4.57143V13.8583Z" fill="#0092DB"/>
<path d="M23.0754 12.715H0.599245C0.283817 12.715 0.0278168 12.4586 0.0278168 12.1432C0.0278168 11.8274 0.283817 11.5714 0.599245 11.5714H23.0754C23.3909 11.5714 23.6469 11.8274 23.6469 12.1432C23.6469 12.4586 23.3909 12.715 23.0754 12.715Z" fill="#0092DB"/>
</svg>
