<svg width="24" height="24" viewBox="0 0 24 24" fill="none" xmlns="http://www.w3.org/2000/svg">
<path d="M9.70658 18.7888C9.35384 18.7888 9.02243 18.6513 8.77291 18.4022L5.59592 15.2229C5.34641 14.9734 5.20927 14.642 5.20927 14.2888C5.20927 13.9357 5.34641 13.6043 5.59592 13.3548L14.3327 4.61312C14.8313 4.11409 15.7013 4.11486 16.2 4.61312L19.3766 7.79201C19.6265 8.04115 19.7636 8.37294 19.7636 8.72607C19.7636 9.07919 19.6265 9.4106 19.3762 9.6605L10.6399 18.4018C10.3907 18.6509 10.0589 18.7888 9.70658 18.7888ZM15.2659 5.37003C15.2389 5.37003 15.1859 5.37651 15.1406 5.42146L6.40388 14.1635C6.35893 14.2089 6.35208 14.2618 6.35208 14.2892C6.35208 14.3167 6.35893 14.3696 6.40388 14.4149L9.58088 17.5935C9.66697 17.6792 9.74544 17.6792 9.83191 17.5935L18.5686 8.85177C18.6121 8.80835 18.6208 8.75921 18.6208 8.72607C18.6208 8.69254 18.6121 8.6434 18.569 8.60074L15.3916 5.42146C15.3463 5.37651 15.2937 5.37003 15.2659 5.37003Z" fill="#0092DB"/>
<path d="M21.6203 6.86787C21.2676 6.86787 20.9361 6.73035 20.687 6.48084L17.51 3.30195C17.2605 3.05243 17.123 2.72064 17.123 2.36789C17.123 2.01515 17.2605 1.68336 17.5104 1.43346L18.5686 0.374085C19.068 -0.12532 19.9373 -0.124558 20.436 0.374085L23.6133 3.55298C24.128 4.068 24.128 4.90606 23.6133 5.42108L22.554 6.48084C22.3048 6.73035 21.9734 6.86787 21.6203 6.86787ZM19.5027 1.131C19.4692 1.131 19.42 1.14014 19.3762 1.18357L18.318 2.24295C18.2749 2.28599 18.2658 2.33475 18.2658 2.36828C18.2658 2.4018 18.2749 2.45056 18.3176 2.49322L21.495 5.67288C21.5403 5.71783 21.5932 5.72507 21.6203 5.72507C21.6477 5.72507 21.7007 5.71783 21.746 5.67288L22.805 4.61312C22.8743 4.54379 22.8743 4.43103 22.805 4.3617L19.628 1.18319C19.5846 1.14014 19.5358 1.131 19.5027 1.131Z" fill="#0092DB"/>
<path d="M18.4433 8.23771C18.297 8.23771 18.1511 8.18209 18.0395 8.07048L15.9211 5.95096C15.8141 5.84354 15.7539 5.69802 15.7539 5.54679C15.7539 5.39518 15.8141 5.24966 15.9211 5.14224L18.0395 3.02348C18.2627 2.79987 18.6242 2.79987 18.8475 3.02348L20.9655 5.14224C21.0729 5.24966 21.1331 5.39518 21.1331 5.54679C21.1331 5.69802 21.0729 5.84354 20.9655 5.95096L18.8475 8.07048C18.7359 8.18209 18.5896 8.23771 18.4433 8.23771ZM17.1333 5.54717L18.4433 6.85796L19.7537 5.54717L18.4433 4.23637L17.1333 5.54717Z" fill="#0092DB"/>
<path d="M7.05871 18.7888C6.70635 18.7888 6.37493 18.6513 6.12542 18.4022L5.59592 17.8719C5.34641 17.6228 5.20927 17.291 5.20927 16.9383C5.20927 16.5848 5.34641 16.2533 5.59592 16.0038L6.39017 15.2092C6.6134 14.986 6.9749 14.986 7.19813 15.2092L8.78663 16.7985C9.00986 17.0221 9.00986 17.3836 8.78663 17.6072L7.99238 18.4018C7.74287 18.6509 7.41146 18.7888 7.05871 18.7888ZM6.79396 16.4221L6.40388 16.8126C6.35893 16.8583 6.35208 16.9108 6.35208 16.9386C6.35208 16.9657 6.35893 17.0186 6.40388 17.064L6.933 17.5935C7.01947 17.6792 7.09795 17.6792 7.18442 17.5935L7.5745 17.203L6.79396 16.4221Z" fill="#0092DB"/>
<path d="M0.572157 24C0.425878 24 0.27998 23.944 0.168367 23.8324C-0.0548608 23.6092 -0.0548608 23.2473 0.168367 23.0241L5.7281 17.4609C5.95133 17.2373 6.31284 17.2373 6.53606 17.4609C6.75929 17.6841 6.75929 18.046 6.53606 18.2692L0.976328 23.8324C0.864714 23.944 0.718436 24 0.572157 24Z" fill="#0092DB"/>
</svg>
