<svg width="24" height="24" viewBox="0 0 24 24" fill="none" xmlns="http://www.w3.org/2000/svg">
<g clip-path="url(#clip0_0_111)">
<path d="M22.4074 12.5932H14.0312C13.716 12.5932 13.6227 12.337 13.6227 12.0217V4.78013C13.6227 2.1443 15.7575 0 18.3819 0C21.0059 0 23.1411 2.1443 23.1411 4.78013V12.0217C23.1411 12.337 22.7226 12.5932 22.4074 12.5932ZM14.7649 11.4502H21.9988V4.78013C21.9988 2.77441 20.3762 1.14297 18.3819 1.14297C16.3872 1.14297 14.7649 2.77441 14.7649 4.78013V11.4502Z" fill="#0092DB"/>
<path d="M7.24195 20.4199C7.09575 20.4199 6.94955 20.3644 6.83799 20.2528L1.70074 15.1125C-0.161436 13.2484 -0.161436 10.2162 1.70074 8.35217C2.60308 7.44945 3.80278 6.95221 5.079 6.95221C6.35522 6.95221 7.55454 7.44945 8.45688 8.35217L13.5945 13.4925C13.8172 13.716 13.8172 14.0773 13.5945 14.3008L7.64553 20.2528C7.53398 20.3644 7.38815 20.4199 7.24195 20.4199ZM5.079 8.09518C4.10774 8.09518 3.19512 8.47363 2.50828 9.16047C1.09156 10.5787 1.09156 12.8863 2.50828 14.3042L7.24195 19.0405L12.383 13.8968L7.64934 9.16047C6.96249 8.47363 6.04987 8.09518 5.079 8.09518Z" fill="#0092DB"/>
<path d="M17.6554 19.269C16.5102 19.269 15.5781 18.3369 15.5781 17.1909C15.5781 16.0449 16.5102 15.1129 17.6554 15.1129C18.8007 15.1129 19.7327 16.0449 19.7327 17.1909C19.7327 18.3369 18.8007 19.269 17.6554 19.269ZM17.6554 16.2558C17.1399 16.2558 16.7203 16.6754 16.7203 17.1909C16.7203 17.7064 17.1399 18.1264 17.6554 18.1264C18.1709 18.1264 18.5905 17.7064 18.5905 17.1909C18.5905 16.6754 18.1709 16.2558 17.6554 16.2558Z" fill="#0092DB"/>
<path d="M12.6846 22.8525C11.6729 22.8525 10.8502 22.0293 10.8502 21.0169C10.8502 20.0049 11.6729 19.1818 12.6846 19.1818C13.6958 19.1818 14.5186 20.0049 14.5186 21.0169C14.5186 22.0293 13.6958 22.8525 12.6846 22.8525ZM12.6846 20.3244C12.3027 20.3244 11.992 20.6351 11.992 21.0169C11.992 21.3988 12.3027 21.7095 12.6846 21.7095C13.0661 21.7095 13.3763 21.3988 13.3763 21.0169C13.3763 20.6351 13.0661 20.3244 12.6846 20.3244Z" fill="#0092DB"/>
<path d="M21.8614 24C20.8498 24 20.027 23.1769 20.027 22.1645C20.027 21.1525 20.8498 20.3293 21.8614 20.3293C22.873 20.3293 23.6958 21.1525 23.6958 22.1645C23.6958 23.1769 22.873 24 21.8614 24ZM21.8614 21.4723C21.4795 21.4723 21.1692 21.783 21.1692 22.1645C21.1692 22.5467 21.4795 22.8574 21.8614 22.8574C22.2429 22.8574 22.5536 22.5467 22.5536 22.1645C22.5536 21.783 22.2429 21.4723 21.8614 21.4723Z" fill="#0092DB"/>
<path d="M21.4277 16.9739C21.1125 16.9739 20.8566 16.7181 20.8566 16.4024V14.1169C20.8566 13.8013 21.1125 13.5454 21.4277 13.5454C21.743 13.5454 21.9988 13.8013 21.9988 14.1169V16.4024C21.9988 16.7181 21.743 16.9739 21.4277 16.9739Z" fill="#0092DB"/>
<path d="M16.0975 22.6884C15.7822 22.6884 15.5264 22.4325 15.5264 22.1169V19.8313C15.5264 19.5157 15.7822 19.2599 16.0975 19.2599C16.4127 19.2599 16.6686 19.5157 16.6686 19.8313V22.1169C16.6686 22.4325 16.4127 22.6884 16.0975 22.6884Z" fill="#0092DB"/>
<path d="M14.5745 16.9739C14.2593 16.9739 14.0034 16.7181 14.0034 16.4024V14.1169C14.0034 13.8013 14.2593 13.5454 14.5745 13.5454C14.8898 13.5454 15.1456 13.8013 15.1456 14.1169V16.4024C15.1456 16.7181 14.8898 16.9739 14.5745 16.9739Z" fill="#0092DB"/>
</g>
<defs>
<clipPath id="clip0_0_111">
<rect width="24" height="24" fill="white"/>
</clipPath>
</defs>
</svg>
