<svg width="24" height="24" viewBox="0 0 24 24" fill="none" xmlns="http://www.w3.org/2000/svg">
<path d="M9.711 20H6.289C5.015 20 3.946 19.044 3.805 17.777L2.009 1.662C2.003 1.608 2 1.554 2 1.5C2 0.673 2.673 0 3.5 0H12.5C13.327 0 14 0.673 14 1.5C14 1.554 13.997 1.608 13.991 1.662L12.195 17.777C12.054 19.044 10.985 20 9.711 20ZM3.5 1C3.225 1 3 1.224 3 1.5L4.799 17.667C4.884 18.427 5.524 19 6.289 19H9.711C10.476 19 11.116 18.427 11.201 17.666L12.997 1.551C13 1.224 12.775 1 12.5 1H3.5Z" fill="#0092DB"/>
<path d="M8 24C6.897 24 6 23.103 6 22V19.5C6 19.224 6.224 19 6.5 19C6.776 19 7 19.224 7 19.5V22C7 22.551 7.448 23 8 23C8.552 23 9 22.551 9 22V19.5C9 19.224 9.224 19 9.5 19C9.776 19 10 19.224 10 19.5V22C10 23.103 9.103 24 8 24Z" fill="#0092DB"/>
<path d="M12.75 8H3.25C2.974 8 2.75 7.776 2.75 7.5C2.75 7.224 2.974 7 3.25 7H12.75C13.026 7 13.25 7.224 13.25 7.5C13.25 7.776 13.026 8 12.75 8Z" fill="#0092DB"/>
<path d="M12.25 12H3.75C3.474 12 3.25 11.776 3.25 11.5C3.25 11.224 3.474 11 3.75 11H12.25C12.526 11 12.75 11.224 12.75 11.5C12.75 11.776 12.526 12 12.25 12Z" fill="#0092DB"/>
<path d="M16.5 24C16.224 24 16 23.776 16 23.5V0.5C16 0.224 16.224 0 16.5 0H20.5C21.327 0 22 0.673 22 1.5V8.5C22 9.327 21.327 10 20.5 10H17V23.5C17 23.776 16.776 24 16.5 24ZM17 9H20.5C20.775 9 21 8.776 21 8.5V1.5C21 1.224 20.775 1 20.5 1H17V9Z" fill="#0092DB"/>
<path d="M21.5 4H19.5C19.224 4 19 3.776 19 3.5C19 3.224 19.224 3 19.5 3H21.5C21.776 3 22 3.224 22 3.5C22 3.776 21.776 4 21.5 4Z" fill="#0092DB"/>
<path d="M21.5 7H19.5C19.224 7 19 6.776 19 6.5C19 6.224 19.224 6 19.5 6H21.5C21.776 6 22 6.224 22 6.5C22 6.776 21.776 7 21.5 7Z" fill="#0092DB"/>
</svg>
