<svg width="24" height="24" viewBox="0 0 24 24" fill="none" xmlns="http://www.w3.org/2000/svg">
<g clip-path="url(#clip0_0_139)">
<path d="M16.2734 21.3333H7.26632C5.21796 21.3333 4.00456 20.0408 4.00456 18.1169V7.11747C4.00456 5.11595 5.45821 3.54846 7.41709 3.54846C7.73234 3.54846 7.94745 3.80432 7.94745 4.11956C7.94745 4.43519 7.7529 4.69105 7.43765 4.69105C6.11878 4.69105 5.14677 5.7571 5.14677 7.11747V18.1169C5.14677 19.3958 5.85874 20.1904 7.26632 20.1904H16.2734C17.4765 20.1904 18.8532 19.5492 18.8532 18.1169V7.11747C18.8532 5.77957 17.6859 4.69105 16.3507 4.69105C16.0354 4.69105 15.7392 4.43519 15.7392 4.11956C15.7392 3.80432 16.0556 3.54846 16.3708 3.54846C18.3362 3.54846 19.9954 5.14945 19.9954 7.11747V18.1169C19.9954 20.0111 18.3693 21.3333 16.2734 21.3333Z" fill="#0092DB"/>
<path d="M18.2779 24H5.26213C3.36721 24 2.10089 22.4473 2.10089 20.3883V4.84635C2.10089 2.76982 3.39805 1.14294 5.26213 1.14294H6.88787C7.20312 1.14294 7.45897 1.3988 7.45897 1.71405C7.45897 2.02968 7.20312 2.28553 6.88787 2.28553H5.26213C3.84504 2.28553 3.2431 3.60478 3.2431 4.84635V20.3883C3.2431 21.6154 3.82981 22.8574 5.26213 22.8574H18.2779C19.5766 22.8574 20.7569 21.7727 20.7569 20.3883V4.84635C20.7569 3.43459 19.5553 2.28553 18.2779 2.28553H16.4062C16.091 2.28553 15.8351 2.02968 15.8351 1.71405C15.8351 1.3988 16.091 1.14294 16.4062 1.14294H18.2779C20.185 1.14294 21.8991 2.80409 21.8991 4.84635V20.3883C21.8991 22.4138 20.2174 24 18.2779 24Z" fill="#0092DB"/>
<path d="M10.3145 10.6666H6.1264C5.81115 10.6666 5.5553 10.4108 5.5553 10.0952C5.5553 9.77992 5.81115 9.52368 6.1264 9.52368H10.3145C10.6297 9.52368 10.8856 9.77992 10.8856 10.0952C10.8856 10.4108 10.6297 10.6666 10.3145 10.6666Z" fill="#0092DB"/>
<path d="M10.3145 12.1904H6.1264C5.81115 12.1904 5.5553 11.9345 5.5553 11.6189C5.5553 11.3036 5.81115 11.0478 6.1264 11.0478H10.3145C10.6297 11.0478 10.8856 11.3036 10.8856 11.6189C10.8856 11.9345 10.6297 12.1904 10.3145 12.1904Z" fill="#0092DB"/>
<path d="M10.3145 17.143H6.1264C5.81115 17.143 5.5553 16.8871 5.5553 16.5715C5.5553 16.2559 5.81115 16 6.1264 16H10.3145C10.6297 16 10.8856 16.2559 10.8856 16.5715C10.8856 16.8871 10.6297 17.143 10.3145 17.143Z" fill="#0092DB"/>
<path d="M10.3145 18.6666H6.1264C5.81115 18.6666 5.5553 18.4108 5.5553 18.0952C5.5553 17.7799 5.81115 17.5237 6.1264 17.5237H10.3145C10.6297 17.5237 10.8856 17.7799 10.8856 18.0952C10.8856 18.4108 10.6297 18.6666 10.3145 18.6666Z" fill="#0092DB"/>
<path d="M15.6996 6.09518H7.84047C7.55796 6.09518 7.3181 5.88882 7.27584 5.60937L6.52655 0.656768C6.5018 0.49229 6.55016 0.325148 6.65829 0.198744C6.7668 0.0723396 6.9248 0 7.09118 0H16.4485C16.6145 0 16.7729 0.0723396 16.8814 0.198744C16.9895 0.325148 17.0379 0.49229 17.0131 0.656768L16.2642 5.60937C16.222 5.88882 15.9821 6.09518 15.6996 6.09518ZM8.33162 4.95222H15.2084L15.7841 1.14297H7.75556L8.33162 4.95222Z" fill="#0092DB"/>
</g>
<defs>
<clipPath id="clip0_0_139">
<rect width="24" height="24" fill="white"/>
</clipPath>
</defs>
</svg>
