<svg width="24" height="24" viewBox="0 0 24 24" fill="none" xmlns="http://www.w3.org/2000/svg">
<g clip-path="url(#clip0_0_155)">
<path d="M6.37096 9.4826C6.50369 9.30607 6.46819 9.05531 6.29167 8.92258C6.1151 8.78985 5.86439 8.82535 5.73166 9.00187C4.43111 10.7315 3.06733 11.9595 2.00344 13.186C1.77783 13.4461 1.96645 13.848 2.3054 13.848C2.41728 13.848 2.52861 13.8013 2.6077 13.7101C3.64579 12.5132 5.03737 11.2561 6.37096 9.4826Z" fill="#0092DB"/>
<path d="M1.22202 15.7964C1.30845 15.5932 1.21377 15.3583 1.0105 15.2719C0.80723 15.1854 0.572367 15.2801 0.48593 15.4834C-0.2771 17.2776 -0.168217 19.6504 1.0026 21.2575C1.08089 21.365 1.20267 21.422 1.32615 21.422C1.64865 21.422 1.84302 21.0527 1.64905 20.7865C0.647905 19.4122 0.567868 17.3345 1.22202 15.7964Z" fill="#0092DB"/>
<path d="M18.2684 9.00188C18.1356 8.82541 17.885 8.78981 17.7083 8.92259C17.5318 9.05532 17.4963 9.30608 17.629 9.4826C18.9637 11.2575 20.348 12.506 21.3923 13.7101C21.4714 13.8013 21.5827 13.848 21.6946 13.848C22.0335 13.848 22.2223 13.4462 21.9966 13.186C20.9367 11.9641 19.5667 10.7285 18.2684 9.00188Z" fill="#0092DB"/>
<path d="M23.5141 15.4834C23.4276 15.2801 23.1927 15.1854 22.9895 15.2719C22.7862 15.3583 22.6916 15.5932 22.778 15.7964C23.4299 17.3293 23.3549 19.4084 22.3509 20.7865C22.1571 21.0525 22.3511 21.422 22.6738 21.422C22.7973 21.422 22.9191 21.3649 22.9974 21.2575C24.1694 19.6487 24.2762 17.2754 23.5141 15.4834Z" fill="#0092DB"/>
<path d="M20.4409 22.1837C19.7867 22.4027 19.0986 22.447 18.4393 22.3209C19.8699 21.3098 20.5197 19.681 20.5197 17.9363C20.5197 15.0549 18.052 13.5288 16.576 9.10858C16.506 8.89906 16.2795 8.78593 16.0699 8.85592C15.8604 8.92586 15.7473 9.15242 15.8173 9.36194C17.3131 13.8415 19.7199 15.3812 19.7199 17.9363C19.7199 20.8025 17.8791 22.1016 16.3027 22.3434C16.0843 22.3769 15.9345 22.581 15.968 22.7993C15.9984 22.9972 16.1687 23.1387 16.3628 23.1387C16.4738 23.1387 16.9697 23.0452 17.4414 22.86C18.4796 23.2719 19.6268 23.2996 20.6947 22.9423C20.9041 22.8722 21.0171 22.6455 20.947 22.4361C20.8769 22.2266 20.6502 22.1136 20.4409 22.1837Z" fill="#0092DB"/>
<path d="M7.57023 22.3218C6.05246 22.0386 4.28014 20.7202 4.28014 17.9363C4.28014 14.5843 8.44244 12.9511 9.21632 4.15586C9.51622 0.747444 14.4839 0.748144 14.7837 4.15586C14.8051 4.39982 15.513 6.06386 16.1587 7.22383C16.266 7.4165 16.5094 7.48634 16.7027 7.37876C16.8957 7.27132 16.9651 7.02776 16.8576 6.83479C16.3718 5.96213 15.9403 5.01723 15.5739 4.02613C15.1384 -0.258599 8.86252 -0.268097 8.42619 4.02613C8.05985 5.01728 7.62827 5.96213 7.14244 6.83479C7.03501 7.02776 7.10435 7.27132 7.29737 7.37876C7.49069 7.48644 7.7341 7.41645 7.84133 7.22383C7.90002 7.1184 7.95777 7.01171 8.01491 6.90428C6.73186 13.1296 3.48031 14.6151 3.48031 17.9363C3.48031 19.7054 4.14966 21.3244 5.56004 22.321C4.90094 22.447 4.2131 22.4025 3.55925 22.1837C3.34988 22.1137 3.12317 22.2266 3.05308 22.4361C2.98299 22.6455 3.09597 22.8721 3.30544 22.9422C4.37532 23.3003 5.5231 23.2712 6.56023 22.8593C6.83734 22.9681 7.34191 23.1149 7.49739 23.1149C7.68621 23.1149 7.85423 22.9806 7.89008 22.7882C7.93057 22.5711 7.78734 22.3623 7.57023 22.3218Z" fill="#0092DB"/>
<path d="M16.906 21.0469C17.1179 21.1084 17.34 20.9864 17.4015 20.7743C17.4631 20.5622 17.3411 20.3403 17.129 20.2787C14.4515 19.5013 14.5372 22.3895 12 22.3895C9.46983 22.3895 9.54582 19.502 6.87109 20.2787C6.65897 20.3403 6.53694 20.5622 6.59853 20.7743C6.66012 20.9865 6.88204 21.1085 7.0941 21.0469C9.18838 20.4389 9.0311 23.1893 12 23.1893C14.9423 23.1894 14.8362 20.4459 16.906 21.0469Z" fill="#0092DB"/>
<path d="M1.9728 3.78659L3.81151 4.91917L3.60729 4.9925C3.39943 5.06719 3.29144 5.29621 3.36613 5.50407C3.42477 5.6673 3.57855 5.76888 3.74252 5.76888C3.83766 5.76888 3.80366 5.77153 4.86415 5.39084C4.99653 5.3433 5.09581 5.22807 5.12191 5.08714C5.138 4.9997 5.13545 5.04315 4.99858 3.92547C4.97173 3.7062 4.77206 3.55043 4.55299 3.57707C4.33373 3.60392 4.17775 3.80339 4.2046 4.02265L4.23095 4.23807L2.39233 3.10555C2.20426 2.98972 1.9579 3.04826 1.84207 3.23633C1.72619 3.4244 1.78478 3.67076 1.9728 3.78659Z" fill="#0092DB"/>
<path d="M1.73434 7.8753L1.51752 7.8665C1.29801 7.85661 1.11069 8.02918 1.10169 8.24984C1.09269 8.47051 1.26431 8.65673 1.48503 8.66568C2.6531 8.71297 2.59006 8.72272 2.69994 8.67758C2.77078 8.64848 2.83227 8.60084 2.87686 8.53655C2.93355 8.45496 2.91026 8.50355 3.20791 7.40098C3.2655 7.18771 3.13927 6.96819 2.92605 6.9106C2.71274 6.85306 2.49327 6.97924 2.43568 7.19246L2.37914 7.40198L1.74959 6.54436C1.61886 6.36629 1.36855 6.32789 1.19052 6.45862C1.01245 6.5893 0.974058 6.83961 1.10479 7.01769L1.73434 7.8753Z" fill="#0092DB"/>
<path d="M18.8717 5.03525C18.8777 5.15233 18.9377 5.26836 19.0401 5.34075C19.1041 5.38609 19.0774 5.36964 20.1223 5.74519C20.331 5.82017 20.5596 5.71099 20.6339 5.50402C20.7086 5.29616 20.6006 5.06709 20.3927 4.99245L20.1885 4.91911L22.0272 3.78654C22.2153 3.67071 22.2738 3.42435 22.158 3.23628C22.0422 3.04826 21.7958 2.98962 21.6077 3.1055L19.7691 4.23802L19.7954 4.0226C19.8223 3.80339 19.6663 3.60387 19.447 3.57702C19.228 3.55048 19.0282 3.70615 19.0014 3.92542C18.8633 5.05864 18.8697 4.99625 18.8717 5.03525Z" fill="#0092DB"/>
<path d="M21.5643 7.19244C21.5067 6.97922 21.2871 6.85299 21.074 6.91058C20.8607 6.96817 20.7345 7.18774 20.7921 7.40095C21.0918 8.51118 21.0679 8.48738 21.1652 8.58737C21.2209 8.64436 21.2929 8.68255 21.3674 8.69855C21.4439 8.71505 21.3496 8.71295 22.515 8.66561C22.7357 8.65666 22.9073 8.47049 22.8983 8.24977C22.8894 8.02906 22.702 7.85628 22.4825 7.86643L22.2657 7.87523L22.8953 7.01756C23.026 6.83949 22.9876 6.58923 22.8095 6.4585C22.6315 6.32777 22.3812 6.36617 22.2505 6.54424L21.6209 7.40185L21.5643 7.19244Z" fill="#0092DB"/>
</g>
<defs>
<clipPath id="clip0_0_155">
<rect width="24" height="24" fill="white"/>
</clipPath>
</defs>
</svg>
