<svg width="24" height="24" viewBox="0 0 24 24" fill="none" xmlns="http://www.w3.org/2000/svg">
<path d="M3.35881 12.1126C4.12886 12.1197 4.85452 12.3522 5.48292 12.788C5.40222 12.8601 5.32237 12.9336 5.24402 13.0098C4.98767 13.2592 5.16537 13.6965 5.52297 13.6965C5.62347 13.6965 5.72412 13.6589 5.80187 13.5832C7.63533 11.7998 10.3364 11.2671 13.0271 12.1584C13.2368 12.2278 13.4632 12.1141 13.5326 11.9044C13.6021 11.6947 13.4884 11.4684 13.2787 11.3989C10.8372 10.5903 8.20313 10.7995 6.13047 12.271C5.29097 11.6239 4.30651 11.3125 3.36246 11.3125C3.14326 11.3125 2.96456 11.4892 2.96256 11.7088C2.96046 11.9298 3.13791 12.1106 3.35881 12.1126Z" fill="#0092DB"/>
<path d="M17.3574 17.7167C17.2678 17.5148 17.0314 17.4236 16.8296 17.5133C14.514 18.5407 10.6913 19.1146 6.90707 17.6441C6.74327 17.5804 6.55687 17.6312 6.44802 17.7693C5.69742 18.7217 4.58426 19.3325 3.31356 19.489C3.09431 19.516 2.93846 19.7157 2.96546 19.9349C2.99261 20.1551 3.19306 20.31 3.41136 20.283C4.05971 20.2032 4.67286 20.0197 5.23227 19.7462C6.70482 20.1486 6.91662 20.3113 7.10048 20.3113C7.26523 20.3113 7.41953 20.2087 7.47758 20.0445C7.55123 19.8362 7.44208 19.6077 7.23383 19.5341C6.87382 19.4068 6.51477 19.2891 6.15052 19.1784C6.41662 18.9738 6.66337 18.7444 6.88697 18.4914C10.3948 19.7718 14.2724 19.5231 17.1539 18.2445C17.3559 18.1549 17.447 17.9186 17.3574 17.7167Z" fill="#0092DB"/>
<path d="M10.934 21.0704C10.4531 20.8889 9.85179 20.6009 9.11859 20.2816C8.91604 20.1934 8.68038 20.2861 8.59213 20.4886C8.50393 20.6912 8.59658 20.9269 8.79913 21.0151C9.54539 21.3401 10.1372 21.6248 10.6514 21.8189C10.8563 21.8963 11.0883 21.7943 11.1669 21.5859C11.2449 21.3792 11.1406 21.1484 10.934 21.0704Z" fill="#0092DB"/>
<path d="M18.7723 18.2014C18.9541 18.2014 19.1187 18.0765 19.1615 17.8918C19.2357 17.5725 19.2892 17.2344 19.3235 16.8859C19.9263 16.3419 20.3323 15.7434 20.5013 15.1473C21.3407 12.1877 20.885 10.1225 20.4443 8.12549C19.9193 5.74693 19.9006 5.09063 19.9171 3.60017C19.9297 2.46422 19.9367 1.83846 19.1595 1.14251C18.5289 0.577808 17.3106 0.112406 16.1968 0.0106557C15.3082 -0.0705446 14.4636 0.313557 13.7535 1.12116C13.2534 1.69006 13.5065 2.45742 13.7663 2.99607C13.6382 3.08907 13.5302 3.20067 13.4489 3.33047C13.1146 3.86452 13.2577 4.79183 13.5952 5.29008C13.9726 5.84723 14.9883 6.02608 16.2095 5.77813C15.9522 7.90364 13.9935 9.78025 14.6812 14.1039C14.7125 14.3008 14.8825 14.4411 15.0758 14.4411C15.3231 14.4411 15.5098 14.2203 15.4713 13.9783C14.7608 9.51034 17.0739 7.93234 17.0374 5.25468C17.0338 4.99068 16.7791 4.80183 16.5251 4.87628C15.2018 5.26353 14.3952 5.04473 14.2575 4.84148C14.0646 4.55667 13.9939 3.96772 14.1271 3.75502C14.2517 3.55592 14.6905 3.40417 15.2583 3.51527C15.3974 3.54247 15.5403 3.49412 15.6343 3.38827L16.2039 2.74672C16.3506 2.58152 16.3355 2.32872 16.1703 2.18201C16.0051 2.03536 15.7523 2.05036 15.6056 2.21556L15.1806 2.69427C14.9474 2.66767 14.7236 2.67182 14.5164 2.70377C14.3225 2.30737 14.167 1.86261 14.3544 1.64941C14.8965 1.03286 15.492 0.749709 16.1241 0.807359C17.0522 0.892159 18.1278 1.29246 18.6259 1.73846C19.2621 2.30812 19.0922 2.68822 19.1156 4.47102C19.1658 8.31434 20.9883 10.4985 19.7318 14.929C19.5947 15.4123 19.2315 15.9158 18.6815 16.3851C18.4577 16.5757 18.6055 16.7501 18.3824 17.7108C18.3241 17.9612 18.5143 18.2014 18.7723 18.2014Z" fill="#0092DB"/>
<path d="M14.6587 21.3538C14.0403 21.476 13.4008 21.4985 12.7775 21.448C12.5577 21.4306 12.3644 21.5942 12.3466 21.8144C12.3288 22.0346 12.4928 22.2276 12.713 22.2454C13.4083 22.3017 14.1211 22.2755 14.8138 22.1386C15.0306 22.0958 15.1715 21.8854 15.1287 21.6687C15.0858 21.4519 14.8753 21.3111 14.6587 21.3538Z" fill="#0092DB"/>
<path d="M18.2247 19.3013C18.0403 19.1795 17.7922 19.2304 17.6705 19.4147C17.3302 19.9299 16.8943 20.3578 16.3747 20.6864C16.036 20.9007 16.1907 21.4245 16.5889 21.4245C16.662 21.4245 16.736 21.4045 16.8024 21.3625C17.4183 20.9729 17.935 20.4659 18.3381 19.8555C18.4598 19.6712 18.4091 19.423 18.2247 19.3013Z" fill="#0092DB"/>
<path d="M20.9641 23.369L20.1093 22.1604L20.3623 22.1927C20.5818 22.2206 20.7818 22.0658 20.8098 21.8467C20.8379 21.6276 20.6829 21.4272 20.4638 21.3992C19.2287 21.2411 19.2703 21.2382 19.1806 21.2557C19.025 21.2859 18.8978 21.4066 18.8651 21.5685L18.6432 22.6616C18.5993 22.8781 18.7392 23.0892 18.9557 23.1332C19.173 23.1772 19.3834 23.0364 19.4272 22.8207L19.465 22.6347L20.3109 23.8309C20.4387 24.0116 20.6885 24.0538 20.8684 23.9265C21.0488 23.799 21.0916 23.5493 20.9641 23.369Z" fill="#0092DB"/>
<path d="M5.98587 21.5686C5.95222 21.4036 5.81892 21.277 5.65157 21.2526C5.57302 21.2411 5.62637 21.2406 4.38712 21.3992C4.16797 21.4273 4.01307 21.6276 4.04112 21.8468C4.06922 22.0659 4.26972 22.2208 4.48867 22.1928L4.74162 22.1604L3.88686 23.369C3.75931 23.5493 3.80211 23.799 3.98247 23.9265C4.16322 24.0543 4.41272 24.0109 4.54002 23.8309L5.38592 22.6348L5.42362 22.8207C5.46757 23.0373 5.67877 23.1771 5.89517 23.1332C6.11167 23.0893 6.25157 22.8782 6.20767 22.6617L5.98587 21.5686Z" fill="#0092DB"/>
</svg>
