<svg width="66" height="67" viewBox="0 0 66 67" fill="none" xmlns="http://www.w3.org/2000/svg">
<g clip-path="url(#clip0_0_202)">
<g clip-path="url(#clip1_0_202)">
<path d="M33 65.9C49.5685 65.9 63 52.4685 63 35.9C63 19.3314 49.5685 5.89996 33 5.89996C16.4315 5.89996 3 19.3314 3 35.9C3 52.4685 16.4315 65.9 33 65.9Z" fill="#EDF5F7"/>
<path d="M13.8 4.69998C14.7941 4.69998 15.6 3.89409 15.6 2.89998C15.6 1.90586 14.7941 1.09998 13.8 1.09998C12.8059 1.09998 12 1.90586 12 2.89998C12 3.89409 12.8059 4.69998 13.8 4.69998Z" fill="#FF4D69"/>
<path d="M63.6 10.76C64.5941 10.76 65.4 9.95409 65.4 8.95997C65.4 7.96586 64.5941 7.15997 63.6 7.15997C62.6059 7.15997 61.8 7.96586 61.8 8.95997C61.8 9.95409 62.6059 10.76 63.6 10.76Z" fill="#00C99F"/>
<path d="M56.4 65.9C57.3941 65.9 58.2 65.0941 58.2 64.1C58.2 63.1059 57.3941 62.3 56.4 62.3C55.4059 62.3 54.6 63.1059 54.6 64.1C54.6 65.0941 55.4059 65.9 56.4 65.9Z" fill="#FFA100"/>
<path d="M3.6 60.5C4.59412 60.5 5.4 59.6941 5.4 58.7C5.4 57.7059 4.59412 56.9 3.6 56.9C2.60589 56.9 1.8 57.7059 1.8 58.7C1.8 59.6941 2.60589 60.5 3.6 60.5Z" fill="#00C99F"/>
<path d="M8.40001 19.1V52.7H57.6V19.1C57.6 17.78 56.52 16.7 55.2 16.7H10.8C9.48001 16.7 8.40001 17.78 8.40001 19.1Z" fill="#C0E4F2"/>
<path d="M54.6 19.1H11.4C11.04 19.1 10.8 19.34 10.8 19.7V49.7C10.8 50.06 11.04 50.3 11.4 50.3H54.6C54.96 50.3 55.2 50.06 55.2 49.7V19.7C55.2 19.34 54.96 19.1 54.6 19.1Z" fill="white"/>
<path d="M57.6 52.7V53.06C56.46 54.68 55.2 56.12 53.82 57.5H12.18C10.8 56.18 9.48001 54.68 8.40001 53.06V52.7H57.6Z" fill="#0092DB"/>
<path d="M33 56.3C33.6627 56.3 34.2 55.7627 34.2 55.1C34.2 54.4372 33.6627 53.9 33 53.9C32.3373 53.9 31.8 54.4372 31.8 55.1C31.8 55.7627 32.3373 56.3 33 56.3Z" fill="white"/>
<path d="M39 63.5H27C28.14 61.94 28.8 60.02 28.8 58.1V57.5H37.2V58.1C37.2 60.02 37.86 61.94 39 63.5Z" fill="#0B83B2"/>
<path d="M42.54 64.34C36.36 66.44 29.64 66.44 23.46 64.34C23.64 63.86 24.06 63.5 24.6 63.5H41.4C41.7 63.5 42 63.62 42.24 63.86C42.36 63.98 42.48 64.16 42.54 64.34Z" fill="#0092DB"/>
<path d="M46.8 14.3H19.2C18.5373 14.3 18 14.8372 18 15.5V17.9C18 18.5627 18.5373 19.1 19.2 19.1H46.8C47.4627 19.1 48 18.5627 48 17.9V15.5C48 14.8372 47.4627 14.3 46.8 14.3Z" fill="#0092DB"/>
<path d="M46.2 19.1L43.62 31.58C43.38 32.72 42.42 33.5 41.28 33.5H24.78C23.64 33.5 22.68 32.72 22.44 31.58L19.86 19.1H46.26H46.2Z" fill="#0B83B2"/>
<path d="M27 21.5C27.66 21.5 28.2 22.04 28.2 22.7V29.9C28.2 30.56 27.66 31.1 27 31.1C26.34 31.1 25.8 30.56 25.8 29.9V22.7C25.8 22.04 26.34 21.5 27 21.5Z" fill="#3DB8E8"/>
<path d="M33 21.5C33.66 21.5 34.2 22.04 34.2 22.7V29.9C34.2 30.56 33.66 31.1 33 31.1C32.34 31.1 31.8 30.56 31.8 29.9V22.7C31.8 22.04 32.34 21.5 33 21.5Z" fill="#3DB8E8"/>
<path d="M39 21.5C39.66 21.5 40.2 22.04 40.2 22.7V29.9C40.2 30.56 39.66 31.1 39 31.1C38.34 31.1 37.8 30.56 37.8 29.9V22.7C37.8 22.04 38.34 21.5 39 21.5Z" fill="#3DB8E8"/>
<path d="M33 3.5C34.32 3.5 35.4 4.58 35.4 5.9V14.3H30.6V5.9C30.6 4.58 31.68 3.5 33 3.5Z" fill="#0B83B2"/>
<path d="M44.4 37.1H21.6C20.6059 37.1 19.8 37.9059 19.8 38.9V44.9C19.8 45.8941 20.6059 46.7 21.6 46.7H44.4C45.3941 46.7 46.2 45.8941 46.2 44.9V38.9C46.2 37.9059 45.3941 37.1 44.4 37.1Z" fill="#0B83B2"/>
<path d="M27 38.9H24.6C24.24 38.9 24 39.14 24 39.5V44.3C24 44.66 24.24 44.9 24.6 44.9H27C28.02 44.9 28.8 44.12 28.8 43.1C28.8 42.68 28.62 42.2 28.32 41.9C28.62 41.6 28.8 41.12 28.8 40.7C28.8 39.68 28.02 38.9 27 38.9ZM25.2 40.1H27C27.36 40.1 27.6 40.34 27.6 40.7C27.6 41.06 27.36 41.3 27 41.3H25.2V40.1ZM27 43.7H25.2V42.5H27C27.36 42.5 27.6 42.74 27.6 43.1C27.6 43.46 27.36 43.7 27 43.7Z" fill="white"/>
<path d="M34.8 38.9C34.44 38.9 34.2 39.14 34.2 39.5V42.5C34.2 43.16 33.66 43.7 33 43.7C32.34 43.7 31.8 43.16 31.8 42.5V39.5C31.8 39.14 31.56 38.9 31.2 38.9C30.84 38.9 30.6 39.14 30.6 39.5V42.5C30.6 43.82 31.68 44.9 33 44.9C34.32 44.9 35.4 43.82 35.4 42.5V39.5C35.4 39.14 35.16 38.9 34.8 38.9Z" fill="white"/>
<path d="M41.76 39.0199C41.52 38.8399 41.1 38.8999 40.92 39.1399L39.6 40.8799L38.28 39.1399C38.1 38.8999 37.68 38.8399 37.44 39.0199C37.2 39.1999 37.14 39.6199 37.32 39.8599L39 42.0799V44.2999C39 44.6599 39.24 44.8999 39.6 44.8999C39.96 44.8999 40.2 44.6599 40.2 44.2999V42.0799L41.88 39.8599C42.06 39.6199 42 39.1999 41.76 39.0199Z" fill="white"/>
<path d="M17.4 42.5H15.6C15.24 42.5 15 42.26 15 41.9C15 41.54 15.24 41.3 15.6 41.3H17.4C17.76 41.3 18 41.54 18 41.9C18 42.26 17.76 42.5 17.4 42.5Z" fill="#FFA100"/>
<path d="M18 39.5C17.82 39.5 17.7 39.44 17.58 39.32L16.38 38.12C16.14 37.88 16.14 37.52 16.38 37.28C16.62 37.04 16.98 37.04 17.22 37.28L18.42 38.48C18.66 38.72 18.66 39.08 18.42 39.32C18.3 39.44 18.18 39.5 18 39.5Z" fill="#FFA100"/>
<path d="M16.8 46.7C16.62 46.7 16.5 46.64 16.38 46.52C16.14 46.28 16.14 45.92 16.38 45.68L17.58 44.48C17.82 44.24 18.18 44.24 18.42 44.48C18.66 44.72 18.66 45.08 18.42 45.32L17.22 46.52C17.1 46.64 16.98 46.7 16.8 46.7Z" fill="#FFA100"/>
<path d="M50.4 42.5H48.6C48.24 42.5 48 42.26 48 41.9C48 41.54 48.24 41.3 48.6 41.3H50.4C50.76 41.3 51 41.54 51 41.9C51 42.26 50.76 42.5 50.4 42.5Z" fill="#FFA100"/>
<path d="M48 39.5C47.82 39.5 47.7 39.44 47.58 39.32C47.34 39.08 47.34 38.72 47.58 38.48L48.78 37.28C49.02 37.04 49.38 37.04 49.62 37.28C49.86 37.52 49.86 37.88 49.62 38.12L48.42 39.32C48.3 39.44 48.18 39.5 48 39.5Z" fill="#FFA100"/>
<path d="M49.2 46.7C49.02 46.7 48.9 46.64 48.78 46.52L47.58 45.32C47.34 45.08 47.34 44.72 47.58 44.48C47.82 44.24 48.18 44.24 48.42 44.48L49.62 45.68C49.86 45.92 49.86 46.28 49.62 46.52C49.5 46.64 49.38 46.7 49.2 46.7Z" fill="#FFA100"/>
<path d="M48.6 21.5H49.8C50.16 21.5 50.4 21.74 50.4 22.1C50.4 22.46 50.16 22.7 49.8 22.7H48.6C48.24 22.7 48 22.46 48 22.1C48 21.74 48.24 21.5 48.6 21.5Z" fill="#8AC4DB"/>
<path d="M48.6 24.5H52.2C52.56 24.5 52.8 24.74 52.8 25.1C52.8 25.46 52.56 25.7 52.2 25.7H48.6C48.24 25.7 48 25.46 48 25.1C48 24.74 48.24 24.5 48.6 24.5Z" fill="#8AC4DB"/>
<path d="M48.6 27.5H49.8C50.16 27.5 50.4 27.74 50.4 28.1C50.4 28.46 50.16 28.7 49.8 28.7H48.6C48.24 28.7 48 28.46 48 28.1C48 27.74 48.24 27.5 48.6 27.5Z" fill="#8AC4DB"/>
<path d="M17.4 22.7H16.2C15.84 22.7 15.6 22.46 15.6 22.1C15.6 21.74 15.84 21.5 16.2 21.5H17.4C17.76 21.5 18 21.74 18 22.1C18 22.46 17.76 22.7 17.4 22.7Z" fill="#8AC4DB"/>
<path d="M17.4 25.7H13.8C13.44 25.7 13.2 25.46 13.2 25.1C13.2 24.74 13.44 24.5 13.8 24.5H17.4C17.76 24.5 18 24.74 18 25.1C18 25.46 17.76 25.7 17.4 25.7Z" fill="#8AC4DB"/>
<path d="M17.4 28.7H16.2C15.84 28.7 15.6 28.46 15.6 28.1C15.6 27.74 15.84 27.5 16.2 27.5H17.4C17.76 27.5 18 27.74 18 28.1C18 28.46 17.76 28.7 17.4 28.7Z" fill="#8AC4DB"/>
</g>
</g>
<defs>
<clipPath id="clip0_0_202">
<rect width="66" height="66" fill="white" transform="translate(0 0.5)"/>
</clipPath>
<clipPath id="clip1_0_202">
<rect width="66" height="66" fill="white" transform="translate(0 0.5)"/>
</clipPath>
</defs>
</svg>
