<svg width="67" height="67" viewBox="0 0 67 67" fill="none" xmlns="http://www.w3.org/2000/svg">
<path d="M31.1 65.9C47.6685 65.9 61.1 52.4685 61.1 35.9C61.1 19.3314 47.6685 5.89996 31.1 5.89996C14.5314 5.89996 1.09998 19.3314 1.09998 35.9C1.09998 52.4685 14.5314 65.9 31.1 65.9Z" fill="#EDF5F7"/>
<path d="M11.9 4.69998C12.8941 4.69998 13.7 3.89409 13.7 2.89998C13.7 1.90586 12.8941 1.09998 11.9 1.09998C10.9059 1.09998 10.1 1.90586 10.1 2.89998C10.1 3.89409 10.9059 4.69998 11.9 4.69998Z" fill="#00C99F"/>
<path d="M64.1 8.29995C65.0941 8.29995 65.9 7.49406 65.9 6.49995C65.9 5.50584 65.0941 4.69995 64.1 4.69995C63.1059 4.69995 62.3 5.50584 62.3 6.49995C62.3 7.49406 63.1059 8.29995 64.1 8.29995Z" fill="#FFA100"/>
<path d="M56.3 65.3C57.2941 65.3 58.1 64.4941 58.1 63.5C58.1 62.5058 57.2941 61.7 56.3 61.7C55.3059 61.7 54.5 62.5058 54.5 63.5C54.5 64.4941 55.3059 65.3 56.3 65.3Z" fill="#00C99F"/>
<path d="M2.89998 61.7C3.89409 61.7 4.69998 60.8941 4.69998 59.9C4.69998 58.9059 3.89409 58.1 2.89998 58.1C1.90586 58.1 1.09998 58.9059 1.09998 59.9C1.09998 60.8941 1.90586 61.7 2.89998 61.7Z" fill="#FF4D69"/>
<path d="M52.7 32.3V56.7199C41.18 68.66 22.22 69.02 10.28 57.5C10.04 57.26 9.74 56.96 9.5 56.7199V32.3C9.5 30.32 11.12 28.7 13.1 28.7H49.1C51.08 28.7 52.7 30.32 52.7 32.3Z" fill="#0092DB"/>
<path d="M37.7 28.7V41.3C37.7 41.54 37.58 41.72 37.4 41.84C37.34 41.84 37.22 41.9 37.1 41.9C36.98 41.9 36.86 41.9 36.8 41.84L34.1 40.2199L31.4 41.84C31.22 41.96 30.98 41.96 30.8 41.84L28.1 40.2199L25.4 41.84C25.1 42.02 24.74 41.9 24.56 41.6C24.56 41.4799 24.5 41.42 24.5 41.3V28.7H37.7Z" fill="#65C1E5"/>
<path d="M26.3 58.7V63.5C26.3 64.16 25.76 64.7 25.1 64.7H22.7C19.22 63.68 15.98 62.06 13.1 59.9V58.7C13.1 58.04 13.64 57.5 14.3 57.5H25.1C25.76 57.5 26.3 58.04 26.3 58.7Z" fill="#65C1E5"/>
<path d="M13.7 53.9H19.7C20.06 53.9 20.3 54.14 20.3 54.5C20.3 54.86 20.06 55.1 19.7 55.1H13.7C13.34 55.1 13.1 54.86 13.1 54.5C13.1 54.14 13.34 53.9 13.7 53.9Z" fill="white"/>
<path d="M13.7 50.3H19.7C20.06 50.3 20.3 50.54 20.3 50.9C20.3 51.26 20.06 51.5 19.7 51.5H13.7C13.34 51.5 13.1 51.26 13.1 50.9C13.1 50.54 13.34 50.3 13.7 50.3Z" fill="white"/>
<path d="M43.04 60.74C42.92 60.92 42.74 61.04 42.5 61.1H41.3V64.1C40.94 64.22 40.58 64.34 40.22 64.46C40.16 64.34 40.1 64.22 40.1 64.1V61.1H38.9C38.66 61.1 38.48 60.98 38.36 60.74C38.24 60.56 38.3 60.32 38.36 60.14L40.16 57.74C40.34 57.5 40.76 57.44 41 57.62C41 57.62 41.06 57.68 41.12 57.74L42.92 60.14C43.04 60.32 43.04 60.56 42.92 60.74H43.04Z" fill="white"/>
<path d="M48.92 60.02C48.44 60.38 47.9 60.74 47.36 61.1H47.3C46.88 61.4 46.52 61.64 46.1 61.88V61.1H44.9C44.66 61.1 44.48 60.98 44.36 60.74C44.24 60.56 44.3 60.32 44.36 60.14L46.16 57.74C46.34 57.5 46.76 57.44 47 57.62C47 57.62 47.06 57.68 47.12 57.74L48.86 60.02H48.92Z" fill="white"/>
<path d="M50.36 8.95996C43.46 9.61996 38.36 15.74 38.96 22.7C39.08 23.66 39.26 24.68 39.56 25.58C39.92 26.66 40.1 27.8 40.1 29V32.36C40.1 32.72 40.34 32.96 40.7 32.96H44.06C45.2 32.96 46.34 33.14 47.48 33.5C54.08 35.72 61.22 32.24 63.5 25.64C65.72 19.04 62.24 11.9 55.64 9.61996C53.96 9.01996 52.16 8.83996 50.36 9.01996V8.95996Z" fill="#00C99F"/>
<path d="M51.5 23.3C52.4941 23.3 53.3 22.4941 53.3 21.5C53.3 20.5058 52.4941 19.7 51.5 19.7C50.5058 19.7 49.7 20.5058 49.7 21.5C49.7 22.4941 50.5058 23.3 51.5 23.3Z" fill="white"/>
<path d="M45.5 23.3C46.4941 23.3 47.3 22.4941 47.3 21.5C47.3 20.5058 46.4941 19.7 45.5 19.7C44.5058 19.7 43.7 20.5058 43.7 21.5C43.7 22.4941 44.5058 23.3 45.5 23.3Z" fill="white"/>
<path d="M57.5 23.3C58.4941 23.3 59.3 22.4941 59.3 21.5C59.3 20.5058 58.4941 19.7 57.5 19.7C56.5058 19.7 55.7 20.5058 55.7 21.5C55.7 22.4941 56.5058 23.3 57.5 23.3Z" fill="white"/>
<path d="M30.5 19.1H34.1C34.46 19.1 34.7 19.34 34.7 19.7C34.7 20.06 34.46 20.3 34.1 20.3H30.5C30.14 20.3 29.9 20.06 29.9 19.7C29.9 19.34 30.14 19.1 30.5 19.1Z" fill="#8AC4DB"/>
<path d="M30.5 22.1H36.5C36.86 22.1 37.1 22.34 37.1 22.7C37.1 23.06 36.86 23.3 36.5 23.3H30.5C30.14 23.3 29.9 23.06 29.9 22.7C29.9 22.34 30.14 22.1 30.5 22.1Z" fill="#8AC4DB"/>
<path d="M30.5 25.1H34.1C34.46 25.1 34.7 25.34 34.7 25.7C34.7 26.06 34.46 26.3 34.1 26.3H30.5C30.14 26.3 29.9 26.06 29.9 25.7C29.9 25.34 30.14 25.1 30.5 25.1Z" fill="#8AC4DB"/>
</svg>
