<svg width="67" height="67" viewBox="0 0 67 67" fill="none" xmlns="http://www.w3.org/2000/svg">
<g clip-path="url(#clip0_0_315)">
<path d="M33.75 12.875C33.1312 12.875 32.7188 12.4625 32.7188 11.8438V9.78125C32.7188 9.1625 33.1312 8.75 33.75 8.75C34.3687 8.75 34.7812 9.1625 34.7812 9.78125V11.8438C34.7812 12.4625 34.3687 12.875 33.75 12.875Z" fill="#006993"/>
<path d="M57.4688 34.5312H55.4062C54.7875 34.5312 54.375 34.1187 54.375 33.5C54.375 32.8812 54.7875 32.4688 55.4062 32.4688H57.4688C58.0875 32.4688 58.5 32.8812 58.5 33.5C58.5 34.1187 58.0875 34.5312 57.4688 34.5312Z" fill="#006993"/>
<path d="M52.5188 23.7031C51.9 23.7031 51.4875 23.2906 51.4875 22.6719C51.4875 22.2594 51.6938 21.95 52.0032 21.7437L53.7563 20.7125C54.2719 20.4031 54.8907 20.6094 55.2 21.125C55.5094 21.6406 55.3032 22.2594 54.7875 22.5687L53.0344 23.6C52.8282 23.6 52.725 23.7031 52.5188 23.7031Z" fill="#006993"/>
<path d="M44.5781 15.7625C43.9594 15.7625 43.5469 15.35 43.5469 14.7312C43.5469 14.525 43.5469 14.3187 43.65 14.2156L44.6812 12.4625C44.9906 11.9468 45.6094 11.8437 46.125 12.05C46.6406 12.3593 46.7438 12.9781 46.5375 13.4937L45.5063 15.2468C45.3 15.5562 44.9906 15.7625 44.5781 15.7625Z" fill="#006993"/>
<path d="M54.2719 46.3906C54.0657 46.3906 53.9626 46.3906 53.7563 46.2875L52.0032 45.2563C51.4876 44.9469 51.3844 44.3281 51.5907 43.8125C51.9001 43.2969 52.5188 43.1938 53.0344 43.4L54.7876 44.4313C55.3032 44.7406 55.4063 45.3594 55.2001 45.875C54.9938 46.1844 54.6844 46.3906 54.2719 46.3906Z" fill="#006993"/>
<path d="M22.9219 15.7625C22.5094 15.7625 22.2 15.5563 21.9937 15.2469L20.9625 13.4938C20.6531 12.9781 20.8594 12.3594 21.375 12.05C21.8906 11.7406 22.5094 11.9469 22.8187 12.4625L23.85 14.2156C24.1594 14.7313 23.9531 15.35 23.4375 15.6594C23.2312 15.6594 23.1281 15.7625 22.9219 15.7625Z" fill="#006993"/>
<path d="M36.8438 23.1875H31.6875C31.0687 23.1875 30.6562 22.775 30.6562 22.1562C30.6562 21.5375 31.0687 21.125 31.6875 21.125H36.8438C37.4625 21.125 37.875 21.5375 37.875 22.1562C37.875 22.775 37.4625 23.1875 36.8438 23.1875Z" fill="#006993"/>
<path d="M36.8438 29.375C36.225 29.375 35.8125 28.9625 35.8125 28.3438V22.1562C35.8125 21.5375 36.225 21.125 36.8438 21.125C37.4625 21.125 37.875 21.5375 37.875 22.1562V28.3438C37.875 28.9625 37.4625 29.375 36.8438 29.375Z" fill="#006993"/>
<path d="M47.1562 29.375C46.5375 29.375 46.125 28.9625 46.125 28.3438V22.1562C46.125 21.5375 46.5375 21.125 47.1562 21.125C47.775 21.125 48.1875 21.5375 48.1875 22.1562V28.3438C48.1875 28.9625 47.775 29.375 47.1562 29.375Z" fill="#006993"/>
<path d="M36.8438 29.375H31.6875C31.0687 29.375 30.6562 28.9625 30.6562 28.3438C30.6562 27.725 31.0687 27.3125 31.6875 27.3125H36.8438C37.4625 27.3125 37.875 27.725 37.875 28.3438C37.875 28.9625 37.4625 29.375 36.8438 29.375Z" fill="#006993"/>
<path d="M31.6875 35.5625C31.0687 35.5625 30.6562 35.15 30.6562 34.5312V28.3438C30.6562 27.725 31.0687 27.3125 31.6875 27.3125C32.3062 27.3125 32.7188 27.725 32.7188 28.3438V34.5312C32.7188 35.15 32.3062 35.5625 31.6875 35.5625Z" fill="#006993"/>
<path d="M47.1562 35.5625C46.5375 35.5625 46.125 35.15 46.125 34.5312V28.3438C46.125 27.725 46.5375 27.3125 47.1562 27.3125C47.775 27.3125 48.1875 27.725 48.1875 28.3438V34.5312C48.1875 35.15 47.775 35.5625 47.1562 35.5625Z" fill="#006993"/>
<path d="M36.8438 35.5625H31.6875C31.0687 35.5625 30.6562 35.15 30.6562 34.5312C30.6562 33.9125 31.0687 33.5 31.6875 33.5H36.8438C37.4625 33.5 37.875 33.9125 37.875 34.5312C37.875 35.15 37.4625 35.5625 36.8438 35.5625Z" fill="#006993"/>
<path d="M42 29.375C41.3812 29.375 40.9688 28.9625 40.9688 28.3438V22.1562C40.9688 21.5375 41.3812 21.125 42 21.125C42.6187 21.125 43.0312 21.5375 43.0312 22.1562V28.3438C43.0312 28.9625 42.6187 29.375 42 29.375Z" fill="#006993"/>
<path d="M47.1562 29.375H42C41.3812 29.375 40.9688 28.9625 40.9688 28.3438C40.9688 27.725 41.3812 27.3125 42 27.3125H47.1562C47.775 27.3125 48.1875 27.725 48.1875 28.3438C48.1875 28.9625 47.775 29.375 47.1562 29.375Z" fill="#006993"/>
<path d="M54.1688 53.9188C54.1688 54.7438 53.9625 55.5688 53.3438 56.1875L53.1375 56.3938C50.3531 59.1782 46.6406 60.8282 42.7219 60.9313C41.3813 60.9313 39.9375 60.8282 38.5969 60.4157L37.9781 60.2094C34.8844 59.2813 31.7906 58.0438 28.9031 56.6C20.9625 52.475 14.5688 45.9782 10.5469 37.9344C9.20625 35.2532 8.07187 32.3657 7.14375 29.4782C7.14375 29.2719 7.04062 29.0657 6.9375 28.8594C6.525 27.4157 6.42188 25.8688 6.42188 24.3219C6.62812 20.4032 8.27812 16.7938 10.9594 14.0094H11.0625C11.5781 13.3907 12.4031 13.0813 13.125 13.0813H13.3312C14.0531 13.0813 14.6719 13.3907 15.1875 13.9063L24.9844 23.7032C26.1187 24.8375 26.1187 26.6938 24.9844 27.8282L23.6438 29.1688L22.2 30.6125C21.1687 31.6438 19.9312 32.4688 18.5906 32.8813C22.5094 39.275 27.975 44.6375 34.3687 48.5563C34.8844 47.2157 35.6062 45.9782 36.6375 45.05L38.0813 43.6063L39.4219 42.2657C40.5563 41.1313 42.4125 41.1313 43.5469 42.2657L53.3438 52.0625C53.8594 52.5782 54.1688 53.1969 54.1688 53.9188Z" fill="#0092DB"/>
<path d="M23.6438 29.1687L22.2 30.6125L11.8875 20.3C11.475 19.8875 11.475 19.2688 11.8875 18.8563C12.3 18.4438 12.9187 18.4438 13.3312 18.8563L23.6438 29.1687Z" fill="#006993"/>
<path d="M47.8781 54.8469C47.4656 55.2594 46.8468 55.2594 46.4343 54.8469L36.6375 45.05L38.0812 43.6063L47.8781 53.4031C48.2906 53.8156 48.2906 54.4344 47.8781 54.8469Z" fill="#006993"/>
<path d="M62.625 33.5C62.625 41.1313 59.6344 48.4532 54.1687 53.9188C54.1687 53.1969 53.8593 52.5782 53.3437 52.0625L51.075 49.7938C58.1906 42.1625 59.5312 30.7156 54.375 21.7438C47.775 10.4 33.3375 6.48127 21.9937 13.0813C20.4469 14.0094 18.9 15.0406 17.6625 16.3813L15.3937 14.1125C14.8781 13.5969 14.2594 13.2875 13.5375 13.2875C24.7781 2.0469 43.1343 2.0469 54.375 13.2875C59.7375 18.7531 62.8312 26.075 62.8312 33.7063L62.625 33.5Z" fill="#C0E4F2"/>
</g>
<defs>
<clipPath id="clip0_0_315">
<rect width="66" height="66" fill="white" transform="translate(0.75 0.5)"/>
</clipPath>
</defs>
</svg>
