<svg width="67" height="67" viewBox="0 0 67 67" fill="none" xmlns="http://www.w3.org/2000/svg">
<g clip-path="url(#clip0_0_249)">
<g clip-path="url(#clip1_0_249)">
<path d="M30.85 65.9C47.4185 65.9 60.85 52.4685 60.85 35.9C60.85 19.3314 47.4185 5.89996 30.85 5.89996C14.2815 5.89996 0.850006 19.3314 0.850006 35.9C0.850006 52.4685 14.2815 65.9 30.85 65.9Z" fill="#EDF5F7"/>
<path d="M7.63002 4.69998C8.62413 4.69998 9.43002 3.89409 9.43002 2.89998C9.43002 1.90586 8.62413 1.09998 7.63002 1.09998C6.6359 1.09998 5.83002 1.90586 5.83002 2.89998C5.83002 3.89409 6.6359 4.69998 7.63002 4.69998Z" fill="#00C99F"/>
<path d="M57.25 7.69998C58.2441 7.69998 59.05 6.89409 59.05 5.89998C59.05 4.90586 58.2441 4.09998 57.25 4.09998C56.2559 4.09998 55.45 4.90586 55.45 5.89998C55.45 6.89409 56.2559 7.69998 57.25 7.69998Z" fill="#FFA100"/>
<path d="M63.85 45.5C64.8441 45.5 65.65 44.6941 65.65 43.7C65.65 42.7059 64.8441 41.9 63.85 41.9C62.8559 41.9 62.05 42.7059 62.05 43.7C62.05 44.6941 62.8559 45.5 63.85 45.5Z" fill="#00C99F"/>
<path d="M3.85002 63.5C4.84413 63.5 5.65002 62.6941 5.65002 61.7C5.65002 60.7059 4.84413 59.9 3.85002 59.9C2.85591 59.9 2.05002 60.7059 2.05002 61.7C2.05002 62.6941 2.85591 63.5 3.85002 63.5Z" fill="#FF4D69"/>
<path d="M43.45 14.3V45.5C43.45 47.48 41.83 49.1 39.85 49.1H3.91001C1.87001 45.02 0.850006 40.46 0.850006 35.9C0.850006 34.88 0.850006 33.92 0.970006 32.9C1.51001 27.44 3.55001 22.28 6.79001 17.9C8.89001 15.08 11.53 12.62 14.53 10.7H39.79C41.77 10.7 43.39 12.32 43.39 14.3H43.45Z" fill="#007AAA"/>
<path d="M51.25 21.5V52.7C51.25 54.68 49.63 56.3 47.65 56.3H8.83C-1.01 45.68 -1.85 29.48 6.85 17.9H47.65C49.63 17.9 51.25 19.52 51.25 21.5Z" fill="#0092DB"/>
<path d="M51.25 24.5V32.9H0.970001C1.27 30.02 1.99 27.2 3.07 24.5H51.19H51.25Z" fill="#3DB8E8"/>
<path d="M57.85 51.5H47.05C46.39 51.5 45.85 50.96 45.85 50.3V44.9C45.85 41.24 48.79 38.3 52.45 38.3C56.11 38.3 59.05 41.24 59.05 44.9V50.3C59.05 50.96 58.51 51.5 57.85 51.5ZM48.25 49.1H56.65V44.9C56.65 42.56 54.79 40.7 52.45 40.7C50.11 40.7 48.25 42.56 48.25 44.9V49.1Z" fill="#A5BCED"/>
<path d="M59.65 49.1H45.25C43.9245 49.1 42.85 50.1745 42.85 51.5V63.5C42.85 64.8255 43.9245 65.9 45.25 65.9H59.65C60.9755 65.9 62.05 64.8255 62.05 63.5V51.5C62.05 50.1745 60.9755 49.1 59.65 49.1Z" fill="#FFA100"/>
<path d="M54.25 56.3C54.25 55.28 53.47 54.5 52.45 54.5C51.43 54.5 50.65 55.28 50.65 56.3C50.65 57.08 51.13 57.74 51.85 57.98V59.9C51.85 60.26 52.09 60.5 52.45 60.5C52.81 60.5 53.05 60.26 53.05 59.9V57.98C53.77 57.74 54.25 57.02 54.25 56.3Z" fill="white"/>
<path d="M12.85 41.3H5.65001C4.98727 41.3 4.45001 41.8372 4.45001 42.5V47.3C4.45001 47.9627 4.98727 48.5 5.65001 48.5H12.85C13.5128 48.5 14.05 47.9627 14.05 47.3V42.5C14.05 41.8372 13.5128 41.3 12.85 41.3Z" fill="white"/>
<path d="M5.05001 36.5H8.65001C9.01001 36.5 9.25001 36.74 9.25001 37.1C9.25001 37.46 9.01001 37.7 8.65001 37.7H5.05001C4.69001 37.7 4.45001 37.46 4.45001 37.1C4.45001 36.74 4.69001 36.5 5.05001 36.5Z" fill="#3DB8E8"/>
<path d="M12.25 36.5H15.85C16.21 36.5 16.45 36.74 16.45 37.1C16.45 37.46 16.21 37.7 15.85 37.7H12.25C11.89 37.7 11.65 37.46 11.65 37.1C11.65 36.74 11.89 36.5 12.25 36.5Z" fill="#3DB8E8"/>
<path d="M19.45 36.5H23.05C23.41 36.5 23.65 36.74 23.65 37.1C23.65 37.46 23.41 37.7 23.05 37.7H19.45C19.09 37.7 18.85 37.46 18.85 37.1C18.85 36.74 19.09 36.5 19.45 36.5Z" fill="#3DB8E8"/>
<path d="M26.65 36.5H30.25C30.61 36.5 30.85 36.74 30.85 37.1C30.85 37.46 30.61 37.7 30.25 37.7H26.65C26.29 37.7 26.05 37.46 26.05 37.1C26.05 36.74 26.29 36.5 26.65 36.5Z" fill="#3DB8E8"/>
<path d="M33.85 36.5H37.45C37.81 36.5 38.05 36.74 38.05 37.1C38.05 37.46 37.81 37.7 37.45 37.7H33.85C33.49 37.7 33.25 37.46 33.25 37.1C33.25 36.74 33.49 36.5 33.85 36.5Z" fill="#3DB8E8"/>
<path d="M18.25 48.5C18.9127 48.5 19.45 47.9627 19.45 47.3C19.45 46.6372 18.9127 46.1 18.25 46.1C17.5872 46.1 17.05 46.6372 17.05 47.3C17.05 47.9627 17.5872 48.5 18.25 48.5Z" fill="#3DB8E8"/>
<path d="M21.25 47.9C20.89 47.9 20.65 47.66 20.65 47.3C20.65 45.98 19.57 44.9 18.25 44.9C16.93 44.9 17.65 44.66 17.65 44.3C17.65 43.94 17.89 43.7 18.25 43.7C20.23 43.7 21.85 45.32 21.85 47.3C21.85 49.28 21.61 47.9 21.25 47.9Z" fill="#3DB8E8"/>
<path d="M23.65 47.9C23.29 47.9 23.05 47.66 23.05 47.3C23.05 44.66 20.89 42.5 18.25 42.5C15.61 42.5 17.65 42.26 17.65 41.9C17.65 41.54 17.89 41.3 18.25 41.3C21.55 41.3 24.25 44 24.25 47.3C24.25 50.6 24.01 47.9 23.65 47.9Z" fill="#3DB8E8"/>
<path d="M14.05 44.3V45.5H11.05V48.5H9.85001V45.5H4.45001V44.3H9.85001V41.3H11.05V44.3H14.05Z" fill="#3DB8E8"/>
</g>
</g>
<defs>
<clipPath id="clip0_0_249">
<rect width="66" height="66" fill="white" transform="translate(0.25 0.5)"/>
</clipPath>
<clipPath id="clip1_0_249">
<rect width="66" height="66" fill="white" transform="translate(0.25 0.5)"/>
</clipPath>
</defs>
</svg>
